<?xml version="1.0" encoding="UTF-8" standalone="no"?>
<svg
   xmlns:dc="http://purl.org/dc/elements/1.1/"
   xmlns:cc="http://creativecommons.org/ns#"
   xmlns:rdf="http://www.w3.org/1999/02/22-rdf-syntax-ns#"
   xmlns:svg="http://www.w3.org/2000/svg"
   xmlns="http://www.w3.org/2000/svg"
   xmlns:sodipodi="http://sodipodi.sourceforge.net/DTD/sodipodi-0.dtd"
   xmlns:inkscape="http://www.inkscape.org/namespaces/inkscape"
   version="1.1"
   id="svg10"
   xml:space="preserve"
   width="380"
   height="80"
   viewBox="0 0 380 80.000001"
   sodipodi:docname="unistuttgart_ipvs_ac_english.svg"
   inkscape:version="1.0.2 (e86c8708, 2021-01-15)"><metadata
     id="metadata16"><rdf:RDF><cc:Work
         rdf:about=""><dc:format>image/svg+xml</dc:format><dc:type
           rdf:resource="http://purl.org/dc/dcmitype/StillImage" /><dc:title></dc:title></cc:Work></rdf:RDF></metadata><defs
     id="defs14"><clipPath
       clipPathUnits="userSpaceOnUse"
       id="clipPath26"><path
         d="M 0,0 H 283.465 V 141.732 H 0 Z"
         id="path24" /></clipPath></defs><sodipodi:namedview
     pagecolor="#ffffff"
     bordercolor="#666666"
     borderopacity="1"
     objecttolerance="10"
     gridtolerance="10"
     guidetolerance="10"
     inkscape:pageopacity="0"
     inkscape:pageshadow="2"
     inkscape:window-width="1680"
     inkscape:window-height="927"
     id="namedview12"
     showgrid="false"
     fit-margin-top="0"
     fit-margin-left="0"
     fit-margin-right="0"
     fit-margin-bottom="0"
     inkscape:zoom="2.3230624"
     inkscape:cx="190.08626"
     inkscape:cy="43.372909"
     inkscape:window-x="0"
     inkscape:window-y="25"
     inkscape:window-maximized="0"
     inkscape:current-layer="layer1"
     inkscape:document-rotation="0"
     lock-margins="true" /><g
     id="g18"
     inkscape:groupmode="layer"
     inkscape:label="unistuttgart_logo_englisch"
     transform="matrix(1.3333333,0,0,-1.3333333,-43.479892,95.081619)"><text
       xml:space="preserve"
       style="font-size:30px;line-height:1.25;font-family:'Univers for UniS 55 Roman';-inkscape-font-specification:'Univers for UniS 55 Roman, ';stroke-width:0.75"
       x="567.66327"
       y="-72.700554"
       id="text1315"
       transform="scale(1,-1)"><tspan
         sodipodi:role="line"
         id="tspan1313"
         x="567.66327"
         y="-72.700554"
         style="stroke-width:0.75" /></text></g><g
     inkscape:groupmode="layer"
     id="layer1"
     inkscape:label="institute"
     style="display:inline"
     transform="translate(-43.479892,-93.894381)"><g
       id="g947"
       transform="translate(0.70606052,0.6757967)"><g
         id="g1632"
         transform="matrix(1.3333333,0,0,-1.3333333,2.582798,191.98926)"><g
           id="g28"
           transform="translate(50.10112,54.729416)"><path
             d="m 0,0 c -0.525,0 -0.948,-0.425 -0.948,-0.948 0,-0.523 0.423,-0.948 0.948,-0.948 0.523,0 0.948,0.425 0.948,0.948 C 0.948,-0.425 0.523,0 0,0"
             style="fill:#34373e;fill-opacity:1;fill-rule:nonzero;stroke:none"
             id="path30" /></g><g
           id="g32"
           transform="translate(52.49142,55.255716)"><path
             d="m 0,0 c 0,0.524 -0.426,0.95 -0.949,0.95 -0.523,0 -0.946,-0.426 -0.946,-0.95 0,-0.522 0.423,-0.946 0.946,-0.946 C -0.426,-0.946 0,-0.522 0,0"
             style="fill:#34373e;fill-opacity:1;fill-rule:nonzero;stroke:none"
             id="path34" /></g><g
           id="g36"
           transform="translate(52.49142,52.304716)"><path
             d="m 0,0 c 0,0.523 -0.426,0.949 -0.949,0.949 -0.523,0 -0.946,-0.426 -0.946,-0.949 0,-0.524 0.423,-0.946 0.946,-0.946 C -0.426,-0.946 0,-0.524 0,0"
             style="fill:#34373e;fill-opacity:1;fill-rule:nonzero;stroke:none"
             id="path38" /></g><g
           id="g40"
           transform="translate(53.17602,54.775816)"><path
             d="m 0,0 c -0.522,0 -0.947,-0.425 -0.947,-0.948 0,-0.523 0.425,-0.948 0.947,-0.948 0.524,0 0.949,0.425 0.949,0.948 C 0.949,-0.425 0.524,0 0,0"
             style="fill:#34373e;fill-opacity:1;fill-rule:nonzero;stroke:none"
             id="path42" /></g><g
           id="g44"
           transform="translate(54.95932,56.265216)"><path
             d="m 0,0 c -0.522,0 -0.947,-0.427 -0.947,-0.95 0,-0.522 0.425,-0.947 0.947,-0.947 0.523,0 0.95,0.425 0.95,0.947 C 0.95,-0.427 0.523,0 0,0"
             style="fill:#34373e;fill-opacity:1;fill-rule:nonzero;stroke:none"
             id="path46" /></g><g
           id="g48"
           transform="translate(54.94542,53.221316)"><path
             d="m 0,0 c -0.522,0 -0.948,-0.426 -0.948,-0.952 0,-0.52 0.426,-0.943 0.948,-0.943 0.523,0 0.949,0.423 0.949,0.943 C 0.949,-0.426 0.523,0 0,0"
             style="fill:#34373e;fill-opacity:1;fill-rule:nonzero;stroke:none"
             id="path50" /></g><g
           id="g52"
           transform="translate(53.11162,49.851216)"><path
             d="M 0,0 C 0.524,0 0.949,0.427 0.949,0.948 0.949,1.469 0.524,1.896 0,1.896 -0.523,1.896 -0.947,1.469 -0.947,0.948 -0.947,0.427 -0.523,0 0,0"
             style="fill:#34373e;fill-opacity:1;fill-rule:nonzero;stroke:none"
             id="path54" /></g><g
           id="g56"
           transform="translate(52.58192,48.961916)"><path
             d="m 0,0 c 0,0.524 -0.426,0.948 -0.95,0.948 -0.522,0 -0.947,-0.424 -0.947,-0.948 0,-0.522 0.425,-0.948 0.947,-0.948 C -0.426,-0.948 0,-0.522 0,0"
             style="fill:#34373e;fill-opacity:1;fill-rule:nonzero;stroke:none"
             id="path58" /></g><g
           id="g60"
           transform="translate(50.15542,45.999816)"><path
             d="M 0,0 C 0.524,0 0.95,0.426 0.95,0.949 0.95,1.472 0.524,1.898 0,1.898 -0.521,1.898 -0.946,1.472 -0.946,0.949 -0.946,0.426 -0.521,0 0,0"
             style="fill:#34373e;fill-opacity:1;fill-rule:nonzero;stroke:none"
             id="path62" /></g><g
           id="g64"
           transform="translate(56.96292,54.773916)"><path
             d="m 0,0 c -0.523,0 -0.949,-0.427 -0.949,-0.95 0,-0.522 0.426,-0.947 0.949,-0.947 0.523,0 0.948,0.425 0.948,0.947 C 0.948,-0.427 0.523,0 0,0"
             style="fill:#34373e;fill-opacity:1;fill-rule:nonzero;stroke:none"
             id="path66" /></g><g
           id="g68"
           transform="translate(56.86462,51.605716)"><path
             d="m 0,0 c -0.523,0 -0.948,-0.426 -0.948,-0.947 0,-0.523 0.425,-0.948 0.948,-0.948 0.523,0 0.949,0.425 0.949,0.948 C 0.949,-0.426 0.523,0 0,0"
             style="fill:#34373e;fill-opacity:1;fill-rule:nonzero;stroke:none"
             id="path70" /></g><g
           id="g72"
           transform="translate(59.08132,53.032916)"><path
             d="m 0,0 c -0.523,0 -0.947,-0.427 -0.947,-0.948 0,-0.523 0.424,-0.949 0.947,-0.949 0.523,0 0.948,0.426 0.948,0.949 C 0.948,-0.427 0.523,0 0,0"
             style="fill:#34373e;fill-opacity:1;fill-rule:nonzero;stroke:none"
             id="path74" /></g><g
           id="g76"
           transform="translate(59.77332,48.873716)"><path
             d="m 0,0 c 0,0.525 -0.426,0.95 -0.949,0.95 -0.522,0 -0.948,-0.425 -0.948,-0.95 0,-0.521 0.426,-0.945 0.948,-0.945 C -0.426,-0.945 0,-0.521 0,0"
             style="fill:#34373e;fill-opacity:1;fill-rule:nonzero;stroke:none"
             id="path78" /></g><g
           id="g80"
           transform="translate(57.47672,47.453516)"><path
             d="m 0,0 c 0,0.523 -0.426,0.947 -0.949,0.947 -0.522,0 -0.948,-0.424 -0.948,-0.947 0,-0.523 0.426,-0.947 0.948,-0.947 C -0.426,-0.947 0,-0.523 0,0"
             style="fill:#34373e;fill-opacity:1;fill-rule:nonzero;stroke:none"
             id="path82" /></g><g
           id="g84"
           transform="translate(53.25862,46.123316)"><path
             d="M 0,0 C 0.523,0 0.95,0.426 0.95,0.949 0.95,1.473 0.523,1.898 0,1.898 -0.521,1.898 -0.947,1.473 -0.947,0.949 -0.947,0.426 -0.521,0 0,0"
             style="fill:#34373e;fill-opacity:1;fill-rule:nonzero;stroke:none"
             id="path86" /></g><g
           id="g88"
           transform="translate(51.77482,43.906516)"><path
             d="M 0,0 C 0.523,0 0.95,0.424 0.95,0.947 0.95,1.47 0.523,1.896 0,1.896 -0.521,1.896 -0.947,1.47 -0.947,0.947 -0.947,0.424 -0.521,0 0,0"
             style="fill:#34373e;fill-opacity:1;fill-rule:nonzero;stroke:none"
             id="path90" /></g><g
           id="g92"
           transform="translate(50.14432,41.552516)"><path
             d="M 0,0 C 0.525,0 0.95,0.423 0.95,0.948 0.95,1.469 0.525,1.896 0,1.896 -0.522,1.896 -0.946,1.469 -0.946,0.948 -0.946,0.423 -0.522,0 0,0"
             style="fill:#34373e;fill-opacity:1;fill-rule:nonzero;stroke:none"
             id="path94" /></g><g
           id="g96"
           transform="translate(55.70052,49.180116)"><path
             d="m 0,0 c 0,0.523 -0.426,0.948 -0.949,0.948 -0.522,0 -0.946,-0.425 -0.946,-0.948 0,-0.522 0.424,-0.948 0.946,-0.948 C -0.426,-0.948 0,-0.522 0,0"
             style="fill:#34373e;fill-opacity:1;fill-rule:nonzero;stroke:none"
             id="path98" /></g><g
           id="g100"
           transform="translate(61.30222,51.298416)"><path
             d="m 0,0 c -0.522,0 -0.947,-0.425 -0.947,-0.946 0,-0.523 0.425,-0.948 0.947,-0.948 0.524,0 0.949,0.425 0.949,0.948 C 0.949,-0.425 0.524,0 0,0"
             style="fill:#34373e;fill-opacity:1;fill-rule:nonzero;stroke:none"
             id="path102" /></g><g
           id="g104"
           transform="translate(60.94992,47.883316)"><path
             d="m 0,0 c -0.523,0 -0.948,-0.425 -0.948,-0.95 0,-0.519 0.425,-0.946 0.948,-0.946 0.522,0 0.947,0.427 0.947,0.946 C 0.947,-0.425 0.522,0 0,0"
             style="fill:#34373e;fill-opacity:1;fill-rule:nonzero;stroke:none"
             id="path106" /></g><g
           id="g108"
           transform="translate(63.28222,45.844816)"><path
             d="m 0,0 c -0.523,0 -0.948,-0.426 -0.948,-0.949 0,-0.523 0.425,-0.947 0.948,-0.947 0.523,0 0.95,0.424 0.95,0.947 C 0.95,-0.426 0.523,0 0,0"
             style="fill:#34373e;fill-opacity:1;fill-rule:nonzero;stroke:none"
             id="path110" /></g><g
           id="g112"
           transform="translate(60.40592,44.509016)"><path
             d="m 0,0 c -0.521,0 -0.947,-0.425 -0.947,-0.949 0,-0.523 0.426,-0.947 0.947,-0.947 0.524,0 0.949,0.424 0.949,0.947 C 0.949,-0.425 0.524,0 0,0"
             style="fill:#34373e;fill-opacity:1;fill-rule:nonzero;stroke:none"
             id="path114" /></g><g
           id="g116"
           transform="translate(59.37042,45.508816)"><path
             d="m 0,0 c 0,0.522 -0.426,0.95 -0.948,0.95 -0.523,0 -0.948,-0.428 -0.948,-0.95 0,-0.524 0.425,-0.948 0.948,-0.948 C -0.426,-0.948 0,-0.524 0,0"
             style="fill:#34373e;fill-opacity:1;fill-rule:nonzero;stroke:none"
             id="path118" /></g><g
           id="g120"
           transform="translate(57.01172,42.036016)"><path
             d="M 0,0 C 0.523,0 0.949,0.426 0.949,0.948 0.949,1.47 0.523,1.897 0,1.897 -0.523,1.897 -0.948,1.47 -0.948,0.948 -0.948,0.426 -0.523,0 0,0"
             style="fill:#34373e;fill-opacity:1;fill-rule:nonzero;stroke:none"
             id="path122" /></g><g
           id="g124"
           transform="translate(53.56872,41.679616)"><path
             d="M 0,0 C 0.525,0 0.949,0.423 0.949,0.948 0.949,1.47 0.525,1.897 0,1.897 -0.522,1.897 -0.946,1.47 -0.946,0.948 -0.946,0.423 -0.522,0 0,0"
             style="fill:#34373e;fill-opacity:1;fill-rule:nonzero;stroke:none"
             id="path126" /></g><g
           id="g128"
           transform="translate(55.99932,45.092016)"><path
             d="m 0,0 c 0,0.523 -0.425,0.949 -0.948,0.949 -0.523,0 -0.947,-0.426 -0.947,-0.949 0,-0.523 0.424,-0.946 0.947,-0.946 C -0.425,-0.946 0,-0.523 0,0"
             style="fill:#34373e;fill-opacity:1;fill-rule:nonzero;stroke:none"
             id="path130" /></g><g
           id="g132"
           transform="translate(62.61472,42.290416)"><path
             d="m 0,0 c -0.524,0 -0.948,-0.426 -0.948,-0.948 0,-0.523 0.424,-0.949 0.948,-0.949 0.523,0 0.949,0.426 0.949,0.949 C 0.949,-0.426 0.523,0 0,0"
             style="fill:#34373e;fill-opacity:1;fill-rule:nonzero;stroke:none"
             id="path134" /></g><g
           id="g136"
           transform="translate(59.01542,41.604416)"><path
             d="m 0,0 c -0.523,0 -0.947,-0.425 -0.947,-0.949 0,-0.521 0.424,-0.946 0.947,-0.946 0.524,0 0.95,0.425 0.95,0.946 C 0.95,-0.425 0.524,0 0,0"
             style="fill:#34373e;fill-opacity:1;fill-rule:nonzero;stroke:none"
             id="path138" /></g><g
           id="g140"
           transform="translate(57.46232,38.843716)"><path
             d="m 0,0 c -0.522,0 -0.949,-0.425 -0.949,-0.949 0,-0.521 0.427,-0.947 0.949,-0.947 0.522,0 0.948,0.426 0.948,0.947 C 0.948,-0.425 0.522,0 0,0"
             style="fill:#34373e;fill-opacity:1;fill-rule:nonzero;stroke:none"
             id="path142" /></g><g
           id="g144"
           transform="translate(55.43682,41.216416)"><path
             d="m 0,0 c -0.523,0 -0.949,-0.424 -0.949,-0.949 0,-0.521 0.426,-0.948 0.949,-0.948 0.523,0 0.949,0.427 0.949,0.948 C 0.949,-0.424 0.523,0 0,0"
             style="fill:#34373e;fill-opacity:1;fill-rule:nonzero;stroke:none"
             id="path146" /></g><g
           id="g148"
           transform="translate(53.79202,38.368416)"><path
             d="m 0,0 c -0.524,0 -0.948,-0.425 -0.948,-0.95 0,-0.521 0.424,-0.947 0.948,-0.947 0.523,0 0.949,0.426 0.949,0.947 C 0.949,-0.425 0.523,0 0,0"
             style="fill:#34373e;fill-opacity:1;fill-rule:nonzero;stroke:none"
             id="path150" /></g><g
           id="g152"
           transform="translate(51.86252,40.979716)"><path
             d="m 0,0 c -0.523,0 -0.948,-0.428 -0.948,-0.949 0,-0.522 0.425,-0.948 0.948,-0.948 0.523,0 0.949,0.426 0.949,0.948 C 0.949,-0.428 0.523,0 0,0"
             style="fill:#34373e;fill-opacity:1;fill-rule:nonzero;stroke:none"
             id="path154" /></g><g
           id="g156"
           transform="translate(50.15962,38.185616)"><path
             d="m 0,0 c -0.523,0 -0.948,-0.428 -0.948,-0.949 0,-0.524 0.425,-0.948 0.948,-0.948 0.524,0 0.949,0.424 0.949,0.948 C 0.949,-0.428 0.524,0 0,0"
             style="fill:#34373e;fill-opacity:1;fill-rule:nonzero;stroke:none"
             id="path158" /></g><g
           id="g160"
           transform="translate(48.34062,40.979716)"><path
             d="m 0,0 c -0.523,0 -0.947,-0.426 -0.947,-0.949 0,-0.522 0.424,-0.948 0.947,-0.948 0.523,0 0.95,0.426 0.95,0.948 C 0.95,-0.426 0.523,0 0,0"
             style="fill:#34373e;fill-opacity:1;fill-rule:nonzero;stroke:none"
             id="path162" /></g><g
           id="g164"
           transform="translate(46.43532,38.357316)"><path
             d="m 0,0 c -0.523,0 -0.946,-0.425 -0.946,-0.95 0,-0.52 0.423,-0.946 0.946,-0.946 0.524,0 0.949,0.426 0.949,0.946 C 0.949,-0.425 0.524,0 0,0"
             style="fill:#34373e;fill-opacity:1;fill-rule:nonzero;stroke:none"
             id="path166" /></g><g
           id="g168"
           transform="translate(42.86292,38.846516)"><path
             d="m 0,0 c -0.523,0 -0.947,-0.425 -0.947,-0.951 0,-0.52 0.424,-0.945 0.947,-0.945 0.524,0 0.949,0.425 0.949,0.945 C 0.949,-0.425 0.524,0 0,0"
             style="fill:#34373e;fill-opacity:1;fill-rule:nonzero;stroke:none"
             id="path170" /></g><g
           id="g172"
           transform="translate(63.67532,49.442816)"><path
             d="m 0,0 c -0.522,0 -0.947,-0.426 -0.947,-0.95 0,-0.522 0.425,-0.947 0.947,-0.947 0.525,0 0.949,0.425 0.949,0.947 C 0.949,-0.426 0.525,0 0,0"
             style="fill:#34373e;fill-opacity:1;fill-rule:nonzero;stroke:none"
             id="path174" /></g><g
           id="g176"
           transform="translate(66.04752,47.486916)"><path
             d="m 0,0 c -0.522,0 -0.947,-0.426 -0.947,-0.948 0,-0.524 0.425,-0.949 0.947,-0.949 0.525,0 0.95,0.425 0.95,0.949 C 0.95,-0.426 0.525,0 0,0"
             style="fill:#34373e;fill-opacity:1;fill-rule:nonzero;stroke:none"
             id="path178" /></g><g
           id="g180"
           transform="translate(66.52692,51.086816)"><path
             d="m 0,0 c -0.523,0 -0.948,-0.422 -0.948,-0.947 0,-0.522 0.425,-0.947 0.948,-0.947 0.523,0 0.947,0.425 0.947,0.947 C 0.947,-0.422 0.523,0 0,0"
             style="fill:#34373e;fill-opacity:1;fill-rule:nonzero;stroke:none"
             id="path182" /></g><g
           id="g184"
           transform="translate(63.89162,52.970316)"><path
             d="m 0,0 c -0.523,0 -0.947,-0.427 -0.947,-0.949 0,-0.522 0.424,-0.947 0.947,-0.947 0.523,0 0.95,0.425 0.95,0.947 C 0.95,-0.427 0.523,0 0,0"
             style="fill:#34373e;fill-opacity:1;fill-rule:nonzero;stroke:none"
             id="path186" /></g><g
           id="g188"
           transform="translate(66.68522,54.764616)"><path
             d="m 0,0 c -0.523,0 -0.946,-0.427 -0.946,-0.95 0,-0.523 0.423,-0.947 0.946,-0.947 0.523,0 0.949,0.424 0.949,0.947 C 0.949,-0.427 0.523,0 0,0"
             style="fill:#34373e;fill-opacity:1;fill-rule:nonzero;stroke:none"
             id="path190" /></g><g
           id="g192"
           transform="translate(63.89022,56.477316)"><path
             d="m 0,0 c -0.521,0 -0.945,-0.427 -0.945,-0.949 0,-0.522 0.424,-0.948 0.945,-0.948 0.525,0 0.949,0.426 0.949,0.948 C 0.949,-0.427 0.525,0 0,0"
             style="fill:#34373e;fill-opacity:1;fill-rule:nonzero;stroke:none"
             id="path194" /></g><g
           id="g196"
           transform="translate(65.56722,57.478016)"><path
             d="M 0,0 C 0,-0.523 0.425,-0.948 0.947,-0.948 1.47,-0.948 1.896,-0.523 1.896,0 1.896,0.523 1.47,0.95 0.947,0.95 0.425,0.95 0,0.523 0,0"
             style="fill:#34373e;fill-opacity:1;fill-rule:nonzero;stroke:none"
             id="path198" /></g><g
           id="g200"
           transform="translate(62.70892,59.114116)"><path
             d="m 0,0 c 0,-0.523 0.426,-0.948 0.948,-0.948 0.524,0 0.949,0.425 0.949,0.948 0,0.523 -0.425,0.949 -0.949,0.949 C 0.426,0.949 0,0.523 0,0"
             style="fill:#34373e;fill-opacity:1;fill-rule:nonzero;stroke:none"
             id="path202" /></g><g
           id="g204"
           transform="translate(66.04612,60.175916)"><path
             d="M 0,0 C 0.524,0 0.949,0.426 0.949,0.948 0.949,1.472 0.524,1.897 0,1.897 -0.522,1.897 -0.947,1.472 -0.947,0.948 -0.947,0.426 -0.522,0 0,0"
             style="fill:#34373e;fill-opacity:1;fill-rule:nonzero;stroke:none"
             id="path206" /></g><g
           id="g208"
           transform="translate(62.32982,62.674516)"><path
             d="m 0,0 c 0,-0.521 0.425,-0.946 0.946,-0.946 0.524,0 0.95,0.425 0.95,0.946 0,0.524 -0.426,0.95 -0.95,0.95 C 0.425,0.95 0,0.524 0,0"
             style="fill:#34373e;fill-opacity:1;fill-rule:nonzero;stroke:none"
             id="path210" /></g><g
           id="g212"
           transform="translate(62.60732,65.277316)"><path
             d="M 0,0 C 0.524,0 0.949,0.425 0.949,0.948 0.949,1.471 0.524,1.896 0,1.896 -0.524,1.896 -0.948,1.471 -0.948,0.948 -0.948,0.425 -0.524,0 0,0"
             style="fill:#34373e;fill-opacity:1;fill-rule:nonzero;stroke:none"
             id="path214" /></g><g
           id="g216"
           transform="translate(59.47672,64.030716)"><path
             d="m 0,0 c 0,-0.523 0.426,-0.947 0.948,-0.947 0.521,0 0.948,0.424 0.948,0.947 0,0.523 -0.427,0.95 -0.948,0.95 C 0.426,0.95 0,0.523 0,0"
             style="fill:#34373e;fill-opacity:1;fill-rule:nonzero;stroke:none"
             id="path218" /></g><g
           id="g220"
           transform="translate(58.40322,63.023516)"><path
             d="m 0,0 c -0.522,0 -0.946,-0.425 -0.946,-0.949 0,-0.521 0.424,-0.948 0.946,-0.948 0.524,0 0.95,0.427 0.95,0.948 C 0.95,-0.425 0.524,0 0,0"
             style="fill:#34373e;fill-opacity:1;fill-rule:nonzero;stroke:none"
             id="path222" /></g><g
           id="g224"
           transform="translate(55.57422,60.144016)"><path
             d="m 0,0 c 0,-0.523 0.425,-0.948 0.948,-0.948 0.523,0 0.949,0.425 0.949,0.948 0,0.522 -0.426,0.949 -0.949,0.949 C 0.425,0.949 0,0.522 0,0"
             style="fill:#34373e;fill-opacity:1;fill-rule:nonzero;stroke:none"
             id="path226" /></g><g
           id="g228"
           transform="translate(55.06422,63.441716)"><path
             d="m 0,0 c -0.523,0 -0.947,-0.424 -0.947,-0.949 0,-0.523 0.424,-0.946 0.947,-0.946 0.524,0 0.949,0.423 0.949,0.946 C 0.949,-0.424 0.524,0 0,0"
             style="fill:#34373e;fill-opacity:1;fill-rule:nonzero;stroke:none"
             id="path230" /></g><g
           id="g232"
           transform="translate(53.55852,65.893716)"><path
             d="m 0,0 c -0.522,0 -0.948,-0.427 -0.948,-0.949 0,-0.523 0.426,-0.948 0.948,-0.948 0.524,0 0.948,0.425 0.948,0.948 C 0.948,-0.427 0.524,0 0,0"
             style="fill:#34373e;fill-opacity:1;fill-rule:nonzero;stroke:none"
             id="path234" /></g><g
           id="g236"
           transform="translate(51.78782,63.699316)"><path
             d="m 0,0 c -0.522,0 -0.948,-0.425 -0.948,-0.949 0,-0.523 0.426,-0.948 0.948,-0.948 0.522,0 0.948,0.425 0.948,0.948 C 0.948,-0.425 0.522,0 0,0"
             style="fill:#34373e;fill-opacity:1;fill-rule:nonzero;stroke:none"
             id="path238" /></g><g
           id="g240"
           transform="translate(48.41492,63.678816)"><path
             d="m 0,0 c -0.523,0 -0.948,-0.426 -0.948,-0.95 0,-0.523 0.425,-0.947 0.948,-0.947 0.522,0 0.949,0.424 0.949,0.947 C 0.949,-0.426 0.522,0 0,0"
             style="fill:#34373e;fill-opacity:1;fill-rule:nonzero;stroke:none"
             id="path242" /></g><g
           id="g244"
           transform="translate(46.98772,61.453316)"><path
             d="m 0,0 c -0.522,0 -0.947,-0.426 -0.947,-0.95 0,-0.523 0.425,-0.946 0.947,-0.946 0.523,0 0.949,0.423 0.949,0.946 C 0.949,-0.426 0.523,0 0,0"
             style="fill:#34373e;fill-opacity:1;fill-rule:nonzero;stroke:none"
             id="path246" /></g><g
           id="g248"
           transform="translate(47.63142,58.597516)"><path
             d="M 0,0 C 0,-0.521 0.425,-0.945 0.948,-0.945 1.47,-0.945 1.897,-0.521 1.897,0 1.897,0.525 1.47,0.95 0.948,0.95 0.425,0.95 0,0.525 0,0"
             style="fill:#34373e;fill-opacity:1;fill-rule:nonzero;stroke:none"
             id="path250" /></g><g
           id="g252"
           transform="translate(44.55462,58.411316)"><path
             d="m 0,0 c 0,-0.524 0.426,-0.95 0.948,-0.95 0.523,0 0.948,0.426 0.948,0.95 0,0.523 -0.425,0.949 -0.948,0.949 C 0.426,0.949 0,0.523 0,0"
             style="fill:#34373e;fill-opacity:1;fill-rule:nonzero;stroke:none"
             id="path254" /></g><g
           id="g256"
           transform="translate(43.39012,57.871516)"><path
             d="m 0,0 c -0.523,0 -0.947,-0.426 -0.947,-0.948 0,-0.523 0.424,-0.948 0.947,-0.948 0.524,0 0.948,0.425 0.948,0.948 C 0.948,-0.426 0.524,0 0,0"
             style="fill:#34373e;fill-opacity:1;fill-rule:nonzero;stroke:none"
             id="path258" /></g><g
           id="g260"
           transform="translate(41.16882,54.505216)"><path
             d="M 0,0 C 0.523,0 0.95,0.425 0.95,0.947 0.95,1.47 0.523,1.896 0,1.896 -0.523,1.896 -0.948,1.47 -0.948,0.947 -0.948,0.425 -0.523,0 0,0"
             style="fill:#34373e;fill-opacity:1;fill-rule:nonzero;stroke:none"
             id="path262" /></g><g
           id="g264"
           transform="translate(40.46102,58.717716)"><path
             d="m 0,0 c 0,-0.52 0.425,-0.946 0.948,-0.946 0.523,0 0.948,0.426 0.948,0.946 0,0.524 -0.425,0.95 -0.948,0.95 C 0.425,0.95 0,0.524 0,0"
             style="fill:#34373e;fill-opacity:1;fill-rule:nonzero;stroke:none"
             id="path266" /></g><g
           id="g268"
           transform="translate(37.99132,57.244116)"><path
             d="m 0,0 c 0,-0.523 0.425,-0.947 0.946,-0.947 0.524,0 0.95,0.424 0.95,0.947 0,0.524 -0.426,0.95 -0.95,0.95 C 0.425,0.95 0,0.524 0,0"
             style="fill:#34373e;fill-opacity:1;fill-rule:nonzero;stroke:none"
             id="path270" /></g><g
           id="g272"
           transform="translate(36.33992,54.599316)"><path
             d="M 0,0 C 0.524,0 0.95,0.425 0.95,0.947 0.95,1.471 0.524,1.896 0,1.896 -0.522,1.896 -0.947,1.471 -0.947,0.947 -0.947,0.425 -0.522,0 0,0"
             style="fill:#34373e;fill-opacity:1;fill-rule:nonzero;stroke:none"
             id="path274" /></g><g
           id="g276"
           transform="translate(33.71802,56.536716)"><path
             d="M 0,0 C 0.523,0 0.949,0.427 0.949,0.948 0.949,1.472 0.523,1.896 0,1.896 -0.523,1.896 -0.947,1.472 -0.947,0.948 -0.947,0.427 -0.523,0 0,0"
             style="fill:#34373e;fill-opacity:1;fill-rule:nonzero;stroke:none"
             id="path278" /></g><g
           id="g280"
           transform="translate(36.58632,58.158916)"><path
             d="M 0,0 C 0.524,0 0.949,0.424 0.949,0.945 0.949,1.47 0.524,1.896 0,1.896 -0.523,1.896 -0.947,1.47 -0.947,0.945 -0.947,0.424 -0.523,0 0,0"
             style="fill:#34373e;fill-opacity:1;fill-rule:nonzero;stroke:none"
             id="path282" /></g><g
           id="g284"
           transform="translate(34.20952,62.087316)"><path
             d="m 0,0 c -0.522,0 -0.947,-0.425 -0.947,-0.95 0,-0.522 0.425,-0.946 0.947,-0.946 0.522,0 0.95,0.424 0.95,0.946 C 0.95,-0.425 0.522,0 0,0"
             style="fill:#34373e;fill-opacity:1;fill-rule:nonzero;stroke:none"
             id="path286" /></g><g
           id="g288"
           transform="translate(36.99852,61.724016)"><path
             d="m 0,0 c 0.524,0 0.949,0.424 0.949,0.947 0,0.525 -0.425,0.95 -0.949,0.95 -0.521,0 -0.946,-0.425 -0.946,-0.95 C -0.946,0.424 -0.521,0 0,0"
             style="fill:#34373e;fill-opacity:1;fill-rule:nonzero;stroke:none"
             id="path290" /></g><g
           id="g292"
           transform="translate(39.29602,61.629316)"><path
             d="m 0,0 c -0.522,0 -0.947,-0.427 -0.947,-0.95 0,-0.522 0.425,-0.949 0.947,-0.949 0.524,0 0.949,0.427 0.949,0.949 C 0.949,-0.427 0.524,0 0,0"
             style="fill:#34373e;fill-opacity:1;fill-rule:nonzero;stroke:none"
             id="path294" /></g><g
           id="g296"
           transform="translate(40.91122,62.084116)"><path
             d="M 0,0 C 0,-0.523 0.425,-0.948 0.948,-0.948 1.47,-0.948 1.897,-0.523 1.897,0 1.897,0.523 1.47,0.95 0.948,0.95 0.425,0.95 0,0.523 0,0"
             style="fill:#34373e;fill-opacity:1;fill-rule:nonzero;stroke:none"
             id="path298" /></g><g
           id="g300"
           transform="translate(42.76592,60.140716)"><path
             d="m 0,0 c 0,-0.521 0.425,-0.948 0.947,-0.948 0.524,0 0.95,0.427 0.95,0.948 0,0.523 -0.426,0.949 -0.95,0.949 C 0.425,0.949 0,0.523 0,0"
             style="fill:#34373e;fill-opacity:1;fill-rule:nonzero;stroke:none"
             id="path302" /></g><g
           id="g304"
           transform="translate(38.82022,52.881616)"><path
             d="m 0,0 c 0.523,0 0.947,0.425 0.947,0.946 0,0.525 -0.424,0.95 -0.947,0.95 -0.524,0 -0.948,-0.425 -0.948,-0.95 C -0.948,0.425 -0.524,0 0,0"
             style="fill:#34373e;fill-opacity:1;fill-rule:nonzero;stroke:none"
             id="path306" /></g><g
           id="g308"
           transform="translate(50.16192,61.564716)"><path
             d="m 0,0 c -0.523,0 -0.947,-0.425 -0.947,-0.95 0,-0.522 0.424,-0.947 0.947,-0.947 0.523,0 0.95,0.425 0.95,0.947 C 0.95,-0.425 0.523,0 0,0"
             style="fill:#34373e;fill-opacity:1;fill-rule:nonzero;stroke:none"
             id="path310" /></g><g
           id="g312"
           transform="translate(57.00562,65.574016)"><path
             d="m 0,0 c -0.522,0 -0.948,-0.427 -0.948,-0.95 0,-0.522 0.426,-0.946 0.948,-0.946 0.522,0 0.948,0.424 0.948,0.946 C 0.948,-0.427 0.522,0 0,0"
             style="fill:#34373e;fill-opacity:1;fill-rule:nonzero;stroke:none"
             id="path314" /></g><g
           id="g316"
           transform="translate(58.06992,66.959416)"><path
             d="m 0,0 c 0,-0.524 0.425,-0.948 0.947,-0.948 0.522,0 0.948,0.424 0.948,0.948 0,0.523 -0.426,0.949 -0.948,0.949 C 0.425,0.949 0,0.523 0,0"
             style="fill:#34373e;fill-opacity:1;fill-rule:nonzero;stroke:none"
             id="path318" /></g><g
           id="g320"
           transform="translate(55.44562,66.384316)"><path
             d="M 0,0 C 0.523,0 0.949,0.425 0.949,0.948 0.949,1.471 0.523,1.897 0,1.897 -0.523,1.897 -0.948,1.471 -0.948,0.948 -0.948,0.425 -0.523,0 0,0"
             style="fill:#34373e;fill-opacity:1;fill-rule:nonzero;stroke:none"
             id="path322" /></g><g
           id="g324"
           transform="translate(57.46792,68.758916)"><path
             d="M 0,0 C 0.523,0 0.949,0.425 0.949,0.946 0.949,1.471 0.523,1.897 0,1.897 -0.522,1.897 -0.948,1.471 -0.948,0.946 -0.948,0.425 -0.522,0 0,0"
             style="fill:#34373e;fill-opacity:1;fill-rule:nonzero;stroke:none"
             id="path326" /></g><g
           id="g328"
           transform="translate(53.79982,69.222516)"><path
             d="M 0,0 C 0.523,0 0.947,0.425 0.947,0.948 0.947,1.473 0.523,1.897 0,1.897 -0.524,1.897 -0.949,1.473 -0.949,0.948 -0.949,0.425 -0.524,0 0,0"
             style="fill:#34373e;fill-opacity:1;fill-rule:nonzero;stroke:none"
             id="path330" /></g><g
           id="g332"
           transform="translate(50.14852,69.414216)"><path
             d="M 0,0 C 0.524,0 0.949,0.425 0.949,0.947 0.949,1.47 0.524,1.897 0,1.897 -0.522,1.897 -0.947,1.47 -0.947,0.947 -0.947,0.425 -0.522,0 0,0"
             style="fill:#34373e;fill-opacity:1;fill-rule:nonzero;stroke:none"
             id="path334" /></g><g
           id="g336"
           transform="translate(46.42892,69.231816)"><path
             d="m 0,0 c 0.524,0 0.949,0.427 0.949,0.948 0,0.525 -0.425,0.95 -0.949,0.95 -0.522,0 -0.947,-0.425 -0.947,-0.95 C -0.947,0.427 -0.522,0 0,0"
             style="fill:#34373e;fill-opacity:1;fill-rule:nonzero;stroke:none"
             id="path338" /></g><g
           id="g340"
           transform="translate(42.85912,68.749616)"><path
             d="M 0,0 C 0.525,0 0.949,0.425 0.949,0.948 0.949,1.47 0.525,1.897 0,1.897 -0.523,1.897 -0.947,1.47 -0.947,0.948 -0.947,0.425 -0.523,0 0,0"
             style="fill:#34373e;fill-opacity:1;fill-rule:nonzero;stroke:none"
             id="path342" /></g><g
           id="g344"
           transform="translate(48.31472,66.607616)"><path
             d="M 0,0 C 0.523,0 0.949,0.427 0.949,0.948 0.949,1.471 0.523,1.897 0,1.897 -0.522,1.897 -0.947,1.471 -0.947,0.948 -0.947,0.427 -0.522,0 0,0"
             style="fill:#34373e;fill-opacity:1;fill-rule:nonzero;stroke:none"
             id="path346" /></g><g
           id="g348"
           transform="translate(44.79972,66.375016)"><path
             d="M 0,0 C 0.523,0 0.949,0.424 0.949,0.947 0.949,1.47 0.523,1.897 0,1.897 -0.523,1.897 -0.947,1.47 -0.947,0.947 -0.947,0.424 -0.523,0 0,0"
             style="fill:#34373e;fill-opacity:1;fill-rule:nonzero;stroke:none"
             id="path350" /></g><g
           id="g352"
           transform="translate(43.24392,65.560916)"><path
             d="m 0,0 c -0.521,0 -0.947,-0.425 -0.947,-0.948 0,-0.523 0.426,-0.949 0.947,-0.949 0.524,0 0.949,0.426 0.949,0.949 C 0.949,-0.425 0.524,0 0,0"
             style="fill:#34373e;fill-opacity:1;fill-rule:nonzero;stroke:none"
             id="path354" /></g><g
           id="g356"
           transform="translate(39.81722,63.074516)"><path
             d="M 0,0 C 0.522,0 0.949,0.425 0.949,0.948 0.949,1.471 0.522,1.897 0,1.897 -0.523,1.897 -0.947,1.471 -0.947,0.948 -0.947,0.425 -0.523,0 0,0"
             style="fill:#34373e;fill-opacity:1;fill-rule:nonzero;stroke:none"
             id="path358" /></g><g
           id="g360"
           transform="translate(37.81302,65.291716)"><path
             d="M 0,0 C 0.523,0 0.949,0.425 0.949,0.948 0.949,1.471 0.523,1.897 0,1.897 -0.523,1.897 -0.948,1.471 -0.948,0.948 -0.948,0.425 -0.523,0 0,0"
             style="fill:#34373e;fill-opacity:1;fill-rule:nonzero;stroke:none"
             id="path362" /></g><g
           id="g364"
           transform="translate(41.24902,65.998216)"><path
             d="M 0,0 C 0.523,0 0.949,0.425 0.949,0.948 0.949,1.47 0.523,1.896 0,1.896 -0.523,1.896 -0.948,1.47 -0.948,0.948 -0.948,0.425 -0.523,0 0,0"
             style="fill:#34373e;fill-opacity:1;fill-rule:nonzero;stroke:none"
             id="path366" /></g><g
           id="g368"
           transform="translate(44.24232,62.505116)"><path
             d="m 0,0 c 0,-0.523 0.426,-0.946 0.948,-0.946 0.523,0 0.948,0.423 0.948,0.946 0,0.524 -0.425,0.95 -0.948,0.95 C 0.426,0.95 0,0.524 0,0"
             style="fill:#34373e;fill-opacity:1;fill-rule:nonzero;stroke:none"
             id="path370" /></g><g
           id="g372"
           transform="translate(46.65862,65.906316)"><path
             d="m 0,0 c -0.522,0 -0.946,-0.426 -0.946,-0.948 0,-0.524 0.424,-0.949 0.946,-0.949 0.522,0 0.949,0.425 0.949,0.949 C 0.949,-0.426 0.522,0 0,0"
             style="fill:#34373e;fill-opacity:1;fill-rule:nonzero;stroke:none"
             id="path374" /></g><g
           id="g376"
           transform="translate(51.85642,66.609016)"><path
             d="M 0,0 C 0.522,0 0.949,0.425 0.949,0.947 0.949,1.471 0.522,1.898 0,1.898 -0.523,1.898 -0.948,1.471 -0.948,0.947 -0.948,0.425 -0.523,0 0,0"
             style="fill:#34373e;fill-opacity:1;fill-rule:nonzero;stroke:none"
             id="path378" /></g><g
           id="g380"
           transform="translate(50.15352,66.051516)"><path
             d="m 0,0 c -0.522,0 -0.946,-0.426 -0.946,-0.95 0,-0.523 0.424,-0.947 0.946,-0.947 0.524,0 0.95,0.424 0.95,0.947 C 0.95,-0.426 0.524,0 0,0"
             style="fill:#34373e;fill-opacity:1;fill-rule:nonzero;stroke:none"
             id="path382" /></g><g
           id="g384"
           transform="translate(55.66752,58.422016)"><path
             d="M 0,0 C 0,0.524 -0.425,0.948 -0.948,0.948 -1.47,0.948 -1.895,0.524 -1.895,0 c 0,-0.523 0.425,-0.949 0.947,-0.949 C -0.425,-0.949 0,-0.523 0,0"
             style="fill:#34373e;fill-opacity:1;fill-rule:nonzero;stroke:none"
             id="path386" /></g><g
           id="g388"
           transform="translate(53.13192,57.735616)"><path
             d="m 0,0 c -0.521,0 -0.946,-0.425 -0.946,-0.949 0,-0.521 0.425,-0.947 0.946,-0.947 0.523,0 0.95,0.426 0.95,0.947 C 0.95,-0.425 0.523,0 0,0"
             style="fill:#34373e;fill-opacity:1;fill-rule:nonzero;stroke:none"
             id="path390" /></g><g
           id="g392"
           transform="translate(50.69802,58.639216)"><path
             d="m 0,0 c 0,-0.522 0.425,-0.947 0.947,-0.947 0.524,0 0.95,0.425 0.95,0.947 0,0.523 -0.426,0.95 -0.95,0.95 C 0.425,0.95 0,0.523 0,0"
             style="fill:#34373e;fill-opacity:1;fill-rule:nonzero;stroke:none"
             id="path394" /></g><g
           id="g396"
           transform="translate(50.14662,57.797716)"><path
             d="m 0,0 c -0.522,0 -0.947,-0.425 -0.947,-0.947 0,-0.523 0.425,-0.95 0.947,-0.95 0.524,0 0.949,0.427 0.949,0.95 C 0.949,-0.425 0.524,0 0,0"
             style="fill:#34373e;fill-opacity:1;fill-rule:nonzero;stroke:none"
             id="path398" /></g><g
           id="g400"
           transform="translate(47.70982,55.255716)"><path
             d="M 0,0 C 0,-0.522 0.425,-0.946 0.948,-0.946 1.47,-0.946 1.897,-0.522 1.897,0 1.897,0.524 1.47,0.95 0.948,0.95 0.425,0.95 0,0.524 0,0"
             style="fill:#34373e;fill-opacity:1;fill-rule:nonzero;stroke:none"
             id="path402" /></g><g
           id="g404"
           transform="translate(47.13992,57.717916)"><path
             d="m 0,0 c -0.521,0 -0.946,-0.425 -0.946,-0.949 0,-0.521 0.425,-0.948 0.946,-0.948 0.524,0 0.95,0.427 0.95,0.948 C 0.95,-0.425 0.524,0 0,0"
             style="fill:#34373e;fill-opacity:1;fill-rule:nonzero;stroke:none"
             id="path406" /></g><g
           id="g408"
           transform="translate(47.05452,52.862616)"><path
             d="M 0,0 C 0.522,0 0.951,0.424 0.951,0.947 0.951,1.47 0.522,1.897 0,1.897 -0.524,1.897 -0.948,1.47 -0.948,0.947 -0.948,0.424 -0.524,0 0,0"
             style="fill:#34373e;fill-opacity:1;fill-rule:nonzero;stroke:none"
             id="path410" /></g><g
           id="g412"
           transform="translate(45.28292,54.340916)"><path
             d="M 0,0 C 0.522,0 0.947,0.425 0.947,0.947 0.947,1.47 0.522,1.897 0,1.897 -0.523,1.897 -0.948,1.47 -0.948,0.947 -0.948,0.425 -0.523,0 0,0"
             style="fill:#34373e;fill-opacity:1;fill-rule:nonzero;stroke:none"
             id="path414" /></g><g
           id="g416"
           transform="translate(45.28982,51.301216)"><path
             d="M 0,0 C 0.523,0 0.95,0.426 0.95,0.944 0.95,1.47 0.523,1.894 0,1.894 -0.521,1.894 -0.947,1.47 -0.947,0.944 -0.947,0.426 -0.521,0 0,0"
             style="fill:#34373e;fill-opacity:1;fill-rule:nonzero;stroke:none"
             id="path418" /></g><g
           id="g420"
           transform="translate(43.28612,52.883016)"><path
             d="M 0,0 C 0.522,0 0.949,0.427 0.949,0.949 0.949,1.473 0.522,1.897 0,1.897 -0.523,1.897 -0.948,1.473 -0.948,0.949 -0.948,0.427 -0.523,0 0,0"
             style="fill:#34373e;fill-opacity:1;fill-rule:nonzero;stroke:none"
             id="path422" /></g><g
           id="g424"
           transform="translate(43.43842,49.690716)"><path
             d="M 0,0 C 0.522,0 0.948,0.425 0.948,0.949 0.948,1.471 0.522,1.897 0,1.897 -0.525,1.897 -0.949,1.471 -0.949,0.949 -0.949,0.425 -0.525,0 0,0"
             style="fill:#34373e;fill-opacity:1;fill-rule:nonzero;stroke:none"
             id="path426" /></g><g
           id="g428"
           transform="translate(41.17062,51.141516)"><path
             d="M 0,0 C 0.522,0 0.948,0.427 0.948,0.95 0.948,1.471 0.522,1.898 0,1.898 -0.523,1.898 -0.948,1.471 -0.948,0.95 -0.948,0.427 -0.523,0 0,0"
             style="fill:#34373e;fill-opacity:1;fill-rule:nonzero;stroke:none"
             id="path430" /></g><g
           id="g432"
           transform="translate(41.43382,47.892616)"><path
             d="M 0,0 C 0.524,0 0.949,0.423 0.949,0.945 0.949,1.469 0.524,1.896 0,1.896 -0.523,1.896 -0.948,1.469 -0.948,0.945 -0.948,0.423 -0.523,0 0,0"
             style="fill:#34373e;fill-opacity:1;fill-rule:nonzero;stroke:none"
             id="path434" /></g><g
           id="g436"
           transform="translate(39.29962,45.957116)"><path
             d="M 0,0 C 0.523,0 0.949,0.426 0.949,0.948 0.949,1.47 0.523,1.898 0,1.898 -0.522,1.898 -0.947,1.47 -0.947,0.948 -0.947,0.426 -0.522,0 0,0"
             style="fill:#34373e;fill-opacity:1;fill-rule:nonzero;stroke:none"
             id="path438" /></g><g
           id="g440"
           transform="translate(37.51882,48.472716)"><path
             d="M 0,0 C 0,0.525 -0.425,0.951 -0.948,0.951 -1.47,0.951 -1.896,0.525 -1.896,0 c 0,-0.522 0.426,-0.948 0.948,-0.948 C -0.425,-0.948 0,-0.522 0,0"
             style="fill:#34373e;fill-opacity:1;fill-rule:nonzero;stroke:none"
             id="path442" /></g><g
           id="g444"
           transform="translate(34.67452,50.118616)"><path
             d="m 0,0 c 0,0.525 -0.427,0.948 -0.95,0.948 -0.523,0 -0.947,-0.423 -0.947,-0.948 0,-0.521 0.424,-0.945 0.947,-0.945 C -0.427,-0.945 0,-0.521 0,0"
             style="fill:#34373e;fill-opacity:1;fill-rule:nonzero;stroke:none"
             id="path446" /></g><g
           id="g448"
           transform="translate(36.33992,51.058916)"><path
             d="M 0,0 C 0.524,0 0.95,0.426 0.95,0.949 0.95,1.47 0.524,1.897 0,1.897 -0.522,1.897 -0.947,1.47 -0.947,0.949 -0.947,0.426 -0.522,0 0,0"
             style="fill:#34373e;fill-opacity:1;fill-rule:nonzero;stroke:none"
             id="path450" /></g><g
           id="g452"
           transform="translate(33.55692,52.880216)"><path
             d="M 0,0 C 0.523,0 0.95,0.425 0.95,0.945 0.95,1.469 0.523,1.896 0,1.896 -0.521,1.896 -0.947,1.469 -0.947,0.945 -0.947,0.425 -0.521,0 0,0"
             style="fill:#34373e;fill-opacity:1;fill-rule:nonzero;stroke:none"
             id="path454" /></g><g
           id="g456"
           transform="translate(38.94182,49.414016)"><path
             d="M 0,0 C 0.524,0 0.95,0.423 0.95,0.947 0.95,1.471 0.524,1.896 0,1.896 -0.522,1.896 -0.947,1.471 -0.947,0.947 -0.947,0.423 -0.522,0 0,0"
             style="fill:#34373e;fill-opacity:1;fill-rule:nonzero;stroke:none"
             id="path458" /></g><g
           id="g460"
           transform="translate(34.19832,47.489716)"><path
             d="m 0,0 c -0.522,0 -0.947,-0.426 -0.947,-0.948 0,-0.524 0.425,-0.949 0.947,-0.949 0.524,0 0.949,0.425 0.949,0.949 C 0.949,-0.426 0.524,0 0,0"
             style="fill:#34373e;fill-opacity:1;fill-rule:nonzero;stroke:none"
             id="path462" /></g><g
           id="g464"
           transform="translate(37.91652,44.889616)"><path
             d="m 0,0 c 0,0.523 -0.425,0.948 -0.949,0.948 -0.522,0 -0.947,-0.425 -0.947,-0.948 0,-0.524 0.425,-0.948 0.947,-0.948 C -0.425,-0.948 0,-0.524 0,0"
             style="fill:#34373e;fill-opacity:1;fill-rule:nonzero;stroke:none"
             id="path466" /></g><g
           id="g468"
           transform="translate(49.60642,52.304716)"><path
             d="m 0,0 c 0,0.523 -0.426,0.949 -0.949,0.949 -0.523,0 -0.948,-0.426 -0.948,-0.949 0,-0.524 0.425,-0.946 0.948,-0.946 C -0.426,-0.946 0,-0.524 0,0"
             style="fill:#34373e;fill-opacity:1;fill-rule:nonzero;stroke:none"
             id="path470" /></g><g
           id="g472"
           transform="translate(50.14432,49.806716)"><path
             d="M 0,0 C 0.523,0 0.949,0.424 0.949,0.949 0.949,1.47 0.523,1.897 0,1.897 -0.523,1.897 -0.948,1.47 -0.948,0.949 -0.948,0.424 -0.523,0 0,0"
             style="fill:#34373e;fill-opacity:1;fill-rule:nonzero;stroke:none"
             id="path474" /></g><g
           id="g476"
           transform="translate(49.51962,48.961916)"><path
             d="m 0,0 c 0,0.524 -0.426,0.948 -0.949,0.948 -0.523,0 -0.948,-0.424 -0.948,-0.948 0,-0.522 0.425,-0.948 0.948,-0.948 C -0.426,-0.948 0,-0.522 0,0"
             style="fill:#34373e;fill-opacity:1;fill-rule:nonzero;stroke:none"
             id="path478" /></g><g
           id="g480"
           transform="translate(46.99652,46.123316)"><path
             d="M 0,0 C 0.523,0 0.949,0.426 0.949,0.949 0.949,1.473 0.523,1.898 0,1.898 -0.524,1.898 -0.947,1.473 -0.947,0.949 -0.947,0.426 -0.524,0 0,0"
             style="fill:#34373e;fill-opacity:1;fill-rule:nonzero;stroke:none"
             id="path482" /></g><g
           id="g484"
           transform="translate(48.43032,43.895416)"><path
             d="M 0,0 C 0.523,0 0.949,0.425 0.949,0.947 0.949,1.472 0.523,1.898 0,1.898 -0.522,1.898 -0.946,1.472 -0.946,0.947 -0.946,0.425 -0.522,0 0,0"
             style="fill:#34373e;fill-opacity:1;fill-rule:nonzero;stroke:none"
             id="path486" /></g><g
           id="g488"
           transform="translate(46.67252,41.687116)"><path
             d="M 0,0 C 0.524,0 0.949,0.424 0.949,0.948 0.949,1.471 0.524,1.897 0,1.897 -0.523,1.897 -0.948,1.471 -0.948,0.948 -0.948,0.424 -0.523,0 0,0"
             style="fill:#34373e;fill-opacity:1;fill-rule:nonzero;stroke:none"
             id="path490" /></g><g
           id="g492"
           transform="translate(43.22122,42.045416)"><path
             d="m 0,0 c 0.523,0 0.95,0.426 0.95,0.948 0,0.525 -0.427,0.95 -0.95,0.95 -0.522,0 -0.948,-0.425 -0.948,-0.95 C -0.948,0.426 -0.522,0 0,0"
             style="fill:#34373e;fill-opacity:1;fill-rule:nonzero;stroke:none"
             id="path494" /></g><g
           id="g496"
           transform="translate(41.87142,44.566616)"><path
             d="M 0,0 C 0.523,0 0.949,0.426 0.949,0.949 0.949,1.471 0.523,1.897 0,1.897 -0.523,1.897 -0.947,1.471 -0.947,0.949 -0.947,0.426 -0.523,0 0,0"
             style="fill:#34373e;fill-opacity:1;fill-rule:nonzero;stroke:none"
             id="path498" /></g><g
           id="g500"
           transform="translate(45.18822,44.154516)"><path
             d="M 0,0 C 0.522,0 0.947,0.424 0.947,0.948 0.947,1.468 0.522,1.895 0,1.895 -0.523,1.895 -0.949,1.468 -0.949,0.948 -0.949,0.424 -0.523,0 0,0"
             style="fill:#34373e;fill-opacity:1;fill-rule:nonzero;stroke:none"
             id="path502" /></g><g
           id="g504"
           transform="translate(44.67022,47.461916)"><path
             d="m 0,0 c 0,0.523 -0.427,0.949 -0.95,0.949 -0.522,0 -0.947,-0.426 -0.947,-0.949 0,-0.524 0.425,-0.948 0.947,-0.948 C -0.427,-0.948 0,-0.524 0,0"
             style="fill:#34373e;fill-opacity:1;fill-rule:nonzero;stroke:none"
             id="path506" /></g><g
           id="g508"
           transform="translate(45.48342,48.234216)"><path
             d="M 0,0 C 0.524,0 0.949,0.425 0.949,0.949 0.949,1.471 0.524,1.897 0,1.897 -0.522,1.897 -0.947,1.471 -0.947,0.949 -0.947,0.425 -0.522,0 0,0"
             style="fill:#34373e;fill-opacity:1;fill-rule:nonzero;stroke:none"
             id="path510" /></g><g
           id="g512"
           transform="translate(47.13852,49.867016)"><path
             d="M 0,0 C 0.524,0 0.949,0.426 0.949,0.948 0.949,1.47 0.524,1.896 0,1.896 -0.521,1.896 -0.947,1.47 -0.947,0.948 -0.947,0.426 -0.521,0 0,0"
             style="fill:#34373e;fill-opacity:1;fill-rule:nonzero;stroke:none"
             id="path514" /></g><g
           id="g516"
           transform="translate(40.75852,43.558416)"><path
             d="m 0,0 c 0,0.524 -0.427,0.949 -0.95,0.949 -0.522,0 -0.946,-0.425 -0.946,-0.949 0,-0.522 0.424,-0.948 0.946,-0.948 C -0.427,-0.948 0,-0.522 0,0"
             style="fill:#34373e;fill-opacity:1;fill-rule:nonzero;stroke:none"
             id="path518" /></g><g
           id="g520"
           transform="translate(41.22032,41.604416)"><path
             d="m 0,0 c -0.521,0 -0.948,-0.425 -0.948,-0.949 0,-0.521 0.427,-0.947 0.948,-0.947 0.523,0 0.95,0.426 0.95,0.947 C 0.95,-0.425 0.523,0 0,0"
             style="fill:#34373e;fill-opacity:1;fill-rule:nonzero;stroke:none"
             id="path522" /></g><g
           id="g524"
           transform="translate(37.78842,42.294116)"><path
             d="m 0,0 c -0.524,0 -0.949,-0.425 -0.949,-0.947 0,-0.525 0.425,-0.951 0.949,-0.951 0.522,0 0.948,0.426 0.948,0.951 C 0.948,-0.425 0.522,0 0,0"
             style="fill:#34373e;fill-opacity:1;fill-rule:nonzero;stroke:none"
             id="path526" /></g><g
           id="g528"
           transform="translate(44.78862,41.214516)"><path
             d="m 0,0 c -0.523,0 -0.947,-0.424 -0.947,-0.948 0,-0.521 0.424,-0.948 0.947,-0.948 0.524,0 0.949,0.427 0.949,0.948 C 0.949,-0.424 0.524,0 0,0"
             style="fill:#34373e;fill-opacity:1;fill-rule:nonzero;stroke:none"
             id="path530" /></g><g
           id="g532"
           transform="translate(53.26242,61.443516)"><path
             d="m 0,0 c -0.521,0 -0.948,-0.426 -0.948,-0.95 0,-0.522 0.427,-0.946 0.948,-0.946 0.523,0 0.949,0.424 0.949,0.946 C 0.949,-0.426 0.523,0 0,0"
             style="fill:#34373e;fill-opacity:1;fill-rule:nonzero;stroke:none"
             id="path534" /></g><g
           id="g536"
           transform="translate(59.97522,60.653616)"><path
             d="m 0,0 c 0,-0.523 0.425,-0.948 0.948,-0.948 0.524,0 0.948,0.425 0.948,0.948 0,0.523 -0.424,0.95 -0.948,0.95 C 0.425,0.95 0,0.523 0,0"
             style="fill:#34373e;fill-opacity:1;fill-rule:nonzero;stroke:none"
             id="path538" /></g><g
           id="g540"
           transform="translate(58.82512,59.659416)"><path
             d="m 0,0 c -0.523,0 -0.949,-0.427 -0.949,-0.949 0,-0.523 0.426,-0.947 0.949,-0.947 0.523,0 0.948,0.424 0.948,0.947 C 0.948,-0.427 0.523,0 0,0"
             style="fill:#34373e;fill-opacity:1;fill-rule:nonzero;stroke:none"
             id="path542" /></g><g
           id="g544"
           transform="translate(61.28032,56.300516)"><path
             d="m 0,0 c 0.524,0 0.949,0.424 0.949,0.947 0,0.524 -0.425,0.95 -0.949,0.95 -0.523,0 -0.947,-0.426 -0.947,-0.95 C -0.947,0.424 -0.523,0 0,0"
             style="fill:#34373e;fill-opacity:1;fill-rule:nonzero;stroke:none"
             id="path546" /></g><g
           id="g548"
           transform="translate(61.42932,54.779016)"><path
             d="m 0,0 c -0.523,0 -0.948,-0.427 -0.948,-0.95 0,-0.523 0.425,-0.947 0.948,-0.947 0.523,0 0.948,0.424 0.948,0.947 C 0.948,-0.427 0.523,0 0,0"
             style="fill:#34373e;fill-opacity:1;fill-rule:nonzero;stroke:none"
             id="path550" /></g><g
           id="g552"
           transform="translate(58.09912,55.466816)"><path
             d="m 0,0 c 0,-0.521 0.425,-0.945 0.949,-0.945 0.522,0 0.947,0.424 0.947,0.945 0,0.525 -0.425,0.95 -0.947,0.95 C 0.425,0.95 0,0.525 0,0"
             style="fill:#34373e;fill-opacity:1;fill-rule:nonzero;stroke:none"
             id="path554" /></g><g
           id="g556"
           transform="translate(56.85252,55.983016)"><path
             d="M 0,0 C 0.524,0 0.949,0.425 0.949,0.946 0.949,1.471 0.524,1.895 0,1.895 -0.522,1.895 -0.947,1.471 -0.947,0.946 -0.947,0.425 -0.522,0 0,0"
             style="fill:#34373e;fill-opacity:1;fill-rule:nonzero;stroke:none"
             id="path558" /></g><g
           id="g588"
           transform="translate(82.99282,52.999516)"><path
             d="m 0,0 c 0,-0.899 -0.099,-1.245 -0.285,-1.519 -0.492,-0.766 -1.419,-0.778 -1.728,-0.778 -1.864,0 -1.939,1.224 -1.939,2.198 V 5.504 H -5.868 V 0 c 0,-0.829 0.026,-1.519 0.457,-2.196 0.842,-1.349 2.471,-1.545 3.361,-1.545 1.803,0 3.914,0.849 3.914,3.508 V 5.504 H 0 Z"
             style="fill:#34373e;fill-opacity:1;fill-rule:nonzero;stroke:none"
             id="path590" /></g><g
           id="g592"
           transform="translate(89.99802,55.966716)"><path
             d="m 0,0 c -1.359,0 -1.852,-0.804 -2.026,-1.086 l -0.05,0.938 H -3.83 c 0.037,-0.434 0.037,-1.11 0.037,-1.137 v -5.126 h 1.843 v 3.658 c 0,0.482 0.109,0.79 0.22,0.952 0.198,0.296 0.557,0.482 0.948,0.482 0.473,0 0.758,-0.26 0.893,-0.53 0.097,-0.199 0.097,-0.422 0.097,-0.682 v -3.88 h 1.867 v 3.375 c 0,1.16 -0.037,1.481 -0.173,1.864 C 1.742,-0.74 1.221,0 0,0"
             style="fill:#34373e;fill-opacity:1;fill-rule:nonzero;stroke:none"
             id="path594" /></g><path
           d="m 93.46362,49.556716 h 1.826 v 6.25 h -1.826 z"
           style="fill:#34373e;fill-opacity:1;fill-rule:nonzero;stroke:none"
           id="path596" /><g
           id="g598"
           transform="translate(99.52672,51.559316)"><path
             d="m 0,0 -1.41,4.236 h -1.951 l 2.286,-6.239 H 0.951 L 3.198,4.236 H 1.432 Z"
             style="fill:#34373e;fill-opacity:1;fill-rule:nonzero;stroke:none"
             id="path600" /></g><g
           id="g602"
           transform="translate(104.88532,53.361116)"><path
             d="M 0,0 C 0.037,0.729 0.369,1.397 1.174,1.397 2.234,1.397 2.26,0.285 2.26,0 Z m 1.234,2.645 c -0.679,0 -1.272,-0.199 -1.753,-0.521 -1.049,-0.727 -1.298,-1.937 -1.298,-2.951 0,-1.001 0.235,-1.84 0.803,-2.434 0.653,-0.678 1.669,-0.776 2.201,-0.776 0.912,0 1.726,0.245 2.185,0.727 0.506,0.533 0.568,1.061 0.592,1.361 H 2.297 c -0.172,-0.694 -0.63,-0.866 -1.088,-0.866 -1.272,0 -1.272,1.26 -1.272,1.666 H 4.125 C 4.15,-0.628 4.173,0.285 3.755,1.138 3.187,2.297 2.125,2.645 1.234,2.645"
             style="fill:#34373e;fill-opacity:1;fill-rule:nonzero;stroke:none"
             id="path604" /></g><g
           id="g606"
           transform="translate(111.84922,54.620716)"><path
             d="m 0,0 -0.037,1.198 h -1.716 c 0.037,-0.356 0.085,-1.259 0.085,-1.554 V -5.064 H 0.16 v 3.077 c 0,0.777 0.112,1.728 1.964,1.556 V 1.211 C 0.644,1.285 0.237,0.532 0,0"
             style="fill:#34373e;fill-opacity:1;fill-rule:nonzero;stroke:none"
             id="path608" /></g><g
           id="g610"
           transform="translate(118.33092,53.262716)"><path
             d="m 0,0 -1.122,0.308 c -0.544,0.15 -0.849,0.236 -0.849,0.656 0,0.383 0.368,0.618 0.86,0.618 0.286,0 0.841,-0.051 0.892,-0.74 h 1.666 c -0.05,1.245 -1.086,1.837 -2.371,1.837 -1.618,0 -2.729,-0.741 -2.729,-1.948 0,-1.271 1.073,-1.581 1.582,-1.731 l 1.135,-0.309 c 0.717,-0.198 0.864,-0.42 0.864,-0.704 0,-0.371 -0.309,-0.74 -0.964,-0.74 -0.768,0 -1.011,0.454 -1.035,0.851 h -1.72 c 0.014,-0.297 0.051,-0.791 0.458,-1.223 0.568,-0.593 1.334,-0.764 2.138,-0.764 1.939,0 2.864,1.073 2.864,2.148 C 1.669,-0.887 1.137,-0.308 0,0"
             style="fill:#34373e;fill-opacity:1;fill-rule:nonzero;stroke:none"
             id="path612" /></g><path
           d="m 121.16262,49.556716 h 1.828 v 6.25 h -1.828 z"
           style="fill:#34373e;fill-opacity:1;fill-rule:nonzero;stroke:none"
           id="path614" /><g
           id="g616"
           transform="translate(127.02152,57.979216)"><path
             d="m 0,0 -1.817,-0.331 v -1.891 h -1.199 v -1.21 h 1.199 v -3.421 c 0,-0.519 0,-1.681 1.843,-1.681 0.297,0 0.828,0.039 1.418,0.197 v 1.2 C 1.225,-7.163 1.099,-7.176 0.827,-7.176 0.015,-7.176 0.015,-6.816 0,-6.247 v 2.815 h 1.484 v 1.21 H 0 Z"
             style="fill:#34373e;fill-opacity:1;fill-rule:nonzero;stroke:none"
             id="path618" /></g><g
           id="g620"
           transform="translate(122.09502,58.566916)"><path
             d="m 0,0 c -0.545,0 -0.984,-0.441 -0.984,-0.983 0,-0.542 0.439,-0.985 0.984,-0.985 0.544,0 0.983,0.443 0.983,0.985 C 0.983,-0.441 0.544,0 0,0"
             style="fill:#34373e;fill-opacity:1;fill-rule:nonzero;stroke:none"
             id="path622" /></g><g
           id="g624"
           transform="translate(94.37672,58.566916)"><path
             d="m 0,0 c -0.544,0 -0.985,-0.441 -0.985,-0.983 0,-0.542 0.441,-0.985 0.985,-0.985 0.543,0 0.984,0.443 0.984,0.985 C 0.984,-0.441 0.543,0 0,0"
             style="fill:#34373e;fill-opacity:1;fill-rule:nonzero;stroke:none"
             id="path626" /></g><g
           id="g628"
           transform="translate(131.14422,55.830316)"><path
             d="M 0,0 1.605,-4.311 3.163,0 h 1.89 L 1.458,-8.574 h -1.853 l 1.1,2.483 L -1.902,0 Z"
             style="fill:#34373e;fill-opacity:1;fill-rule:nonzero;stroke:none"
             id="path630" /></g><g
           id="g632"
           transform="translate(141.07472,54.484316)"><path
             d="m 0,0 c -0.173,-0.148 -0.259,-0.272 -0.309,-0.333 -0.211,-0.335 -0.347,-0.84 -0.347,-1.608 0,-0.06 -0.049,-0.977 0.434,-1.532 0.037,-0.036 0.16,-0.173 0.258,-0.233 0.138,-0.088 0.384,-0.211 0.716,-0.211 0.063,0 0.2,0.013 0.348,0.063 0.421,0.135 0.666,0.456 0.778,0.652 0.308,0.534 0.296,1.448 0.296,1.486 0,0.098 0,0.728 -0.21,1.197 C 1.867,-0.296 1.755,-0.172 1.68,-0.098 1.567,0.024 1.457,0.099 1.397,0.123 1.296,0.184 1.013,0.296 0.69,0.272 0.358,0.248 0.124,0.099 0,0 m 3.076,0.641 c 0.11,-0.11 0.371,-0.419 0.545,-0.752 0.122,-0.248 0.21,-0.569 0.22,-0.617 0.052,-0.173 0.137,-0.532 0.137,-1.001 0,-0.248 -0.023,-0.484 -0.063,-0.728 -0.084,-0.595 -0.294,-1.249 -0.9,-1.832 -0.483,-0.456 -1.162,-0.826 -2.274,-0.826 -1.063,0 -1.705,0.307 -2.187,0.716 -0.223,0.21 -0.37,0.384 -0.421,0.445 -0.334,0.456 -0.592,1.125 -0.592,2.174 0,0.262 0,0.767 0.297,1.434 0.111,0.285 0.221,0.494 0.469,0.766 0.456,0.519 1.198,1 2.322,1.05 C 0.853,1.482 1.755,1.52 2.569,1.026 2.682,0.964 2.755,0.902 2.854,0.828 Z"
             style="fill:#34373e;fill-opacity:1;fill-rule:nonzero;stroke:none"
             id="path634" /></g><g
           id="g636"
           transform="translate(149.51282,57.115416)"><path
             d="m 0,0 c -0.407,0.013 -0.728,0 -0.89,-0.036 -0.356,-0.1 -0.356,-0.494 -0.356,-0.705 v -0.568 h 1.16 v -1.199 h -1.151 v -5.066 h -1.777 v 5.066 h -1.149 v 1.199 h 1.162 v 0.716 c 0,0.049 0.012,0.531 0.147,0.878 0.285,0.717 0.903,0.951 2.001,0.951 0.286,0 0.571,-0.024 0.866,-0.037 z"
             style="fill:#34373e;fill-opacity:1;fill-rule:nonzero;stroke:none"
             id="path638" /></g><g
           id="g640"
           transform="translate(157.71802,54.713116)"><path
             d="m 0,0 c -1.284,0.323 -1.936,0.467 -1.936,1.296 0,0.728 0.579,1.209 1.468,1.209 1.321,0 1.421,-1.05 1.445,-1.358 h 1.839 c 0,0.299 0,1.016 -0.505,1.657 -0.669,0.839 -1.767,1.05 -2.694,1.05 -2.48,0 -3.531,-1.297 -3.531,-2.768 0,-1.541 1.158,-2.173 3.285,-2.704 1.138,-0.271 1.696,-0.408 1.696,-1.197 0,-0.754 -0.657,-1.248 -1.696,-1.248 -1.643,0 -1.618,1.275 -1.618,1.695 h -1.95 c 0.01,-0.868 0.035,-3.066 3.457,-3.066 2.469,0 3.805,1.298 3.805,2.902 C 3.065,-0.791 1.545,-0.37 0,0"
             style="fill:#34373e;fill-opacity:1;fill-rule:nonzero;stroke:none"
             id="path642" /></g><g
           id="g644"
           transform="translate(164.43562,57.579616)"><path
             d="M 0,0 -1.816,-0.668 V -1.894 H -3.012 V -3.1 h 1.196 v -3.423 c 0,-0.517 0,-1.678 1.842,-1.678 0.294,0 0.829,0.036 1.418,0.196 v 1.198 C 1.222,-6.83 1.099,-6.842 0.829,-6.842 0.012,-6.842 0.012,-6.485 0,-5.915 V -3.1 h 1.483 v 1.206 H 0 Z"
             style="fill:#34373e;fill-opacity:1;fill-rule:nonzero;stroke:none"
             id="path646" /></g><g
           id="g648"
           transform="translate(172.73492,51.612216)"><path
             d="m 0,0 v 4.114 h -1.879 v -3.15 c 0,-1.061 0,-1.939 -1.173,-1.939 -0.976,0 -0.976,0.826 -0.976,1.371 v 3.718 h -1.851 v -3.88 c 0,-0.306 0,-1.172 0.407,-1.678 0.346,-0.458 1.037,-0.84 1.878,-0.84 1.185,0 1.655,0.719 1.84,0.988 l 0.06,-0.827 H 0.087 C 0.06,-1.952 0.049,-1.841 0.037,-1.667 0.037,-1.507 0.024,-1.345 0,0"
             style="fill:#34373e;fill-opacity:1;fill-rule:nonzero;stroke:none"
             id="path650" /></g><g
           id="g652"
           transform="translate(181.26802,57.579616)"><path
             d="M 0,0 -1.817,-0.668 V -1.892 H -4.498 V 0 l -1.814,-0.668 v -1.224 h -1.2 v -1.21 h 1.2 v -3.421 c 0,-0.517 0,-1.677 1.841,-1.677 0.295,0 0.828,0.035 1.418,0.195 v 1.2 c -0.219,-0.027 -0.345,-0.039 -0.616,-0.039 -0.814,0 -0.814,0.359 -0.829,0.929 v 2.813 h 2.681 v -3.421 c 0,-0.517 0,-1.677 1.841,-1.677 0.296,0 0.828,0.035 1.422,0.195 v 1.2 C 1.221,-6.832 1.098,-6.844 0.827,-6.844 0.012,-6.844 0.012,-6.485 0,-5.915 v 2.813 h 1.483 v 1.21 H 0 Z"
             style="fill:#34373e;fill-opacity:1;fill-rule:nonzero;stroke:none"
             id="path654" /></g><g
           id="g656"
           transform="translate(186.62532,50.860316)"><path
             d="m 0,0 c -1.222,0 -1.222,1.507 -1.222,1.815 0,1.336 0.569,1.865 1.257,1.865 1.114,0 1.249,-1.198 1.249,-1.902 C 1.284,1.507 1.284,0 0,0 m 1.359,4.013 c -0.185,0.273 -0.604,0.89 -1.741,0.89 -1.79,0 -2.667,-1.506 -2.667,-3.088 0,-1.508 0.84,-3.064 2.631,-3.064 0.445,0 1.098,0.086 1.679,0.854 C 1.247,-1.348 1.247,-1.569 1.174,-1.876 1.051,-2.432 0.581,-2.692 0.035,-2.692 c -0.972,0 -1.059,0.678 -1.082,0.862 h -1.755 c 0.111,-1.89 1.853,-2.001 2.743,-2.001 1.195,0 3.112,0.224 3.112,2.52 v 4.61 c 0,0.628 0.038,1.048 0.085,1.542 H 1.42 Z"
             style="fill:#34373e;fill-opacity:1;fill-rule:nonzero;stroke:none"
             id="path658" /></g><g
           id="g660"
           transform="translate(194.21362,50.883516)"><path
             d="m 0,0 c -0.173,-0.196 -0.445,-0.356 -0.778,-0.356 -0.608,0 -0.89,0.466 -0.89,0.889 0,0.741 0.839,1.111 2.015,1.013 C 0.347,0.879 0.318,0.395 0,0 m 2.076,2.693 c 0,0.284 -0.013,1.025 -0.435,1.532 -0.614,0.717 -1.704,0.803 -2.223,0.803 -0.59,0 -1.32,-0.099 -1.889,-0.507 C -3.125,4.051 -3.164,3.387 -3.174,3.05 h 1.788 c 0,0.15 0,0.348 0.139,0.557 0.161,0.236 0.43,0.348 0.692,0.348 0.171,0 0.657,-0.063 0.815,-0.52 0.074,-0.222 0.087,-0.42 0.087,-0.827 -0.607,0 -1.703,0 -2.471,-0.348 -1.153,-0.531 -1.323,-1.442 -1.323,-1.941 0,-0.49 0.17,-0.999 0.545,-1.369 0.246,-0.234 0.653,-0.492 1.554,-0.492 0.347,0 1.175,0 1.866,1.001 0,-0.187 0,-0.47 0.063,-0.853 h 1.657 c -0.114,0.519 -0.15,1.05 -0.15,1.579 z"
             style="fill:#34373e;fill-opacity:1;fill-rule:nonzero;stroke:none"
             id="path662" /></g><g
           id="g664"
           transform="translate(205.68972,54.477816)"><path
             d="M 0,0 V 1.21 H -1.483 V 3.102 L -3.3,2.436 V 1.21 H -4.499 L -4.497,1.204 C -5.681,1.161 -6.052,0.56 -6.262,0.074 l -0.036,1.197 h -1.72 c 0.04,-0.358 0.088,-1.258 0.088,-1.553 v -4.707 h 1.828 v 3.074 C -6.102,-1.136 -6.131,0 -4.14,0 h 0.84 v -3.421 c 0,-0.517 0,-1.677 1.84,-1.677 0.298,0 0.831,0.035 1.422,0.195 v 1.2 C -0.259,-3.73 -0.384,-3.74 -0.656,-3.74 c -0.816,0 -0.816,0.356 -0.827,0.926 V 0 Z"
             style="fill:#34373e;fill-opacity:1;fill-rule:nonzero;stroke:none"
             id="path666" /></g></g><text
         xml:space="preserve"
         style="font-style:normal;font-variant:normal;font-weight:normal;font-stretch:normal;font-size:15.9209px;line-height:1.25;font-family:'Univers for UniS 65 Bold';-inkscape-font-specification:'Univers for UniS 65 Bold, ';letter-spacing:-0.21px;fill:#34373e;fill-opacity:1;stroke-width:0.398027"
         x="107.00575"
         y="141.3858"
         id="text1319"
         transform="scale(0.97025593,1.0306559)"><tspan
           sodipodi:role="line"
           id="tspan1317"
           x="107.00575"
           y="141.3858"
           style="font-style:normal;font-variant:normal;font-weight:normal;font-stretch:normal;font-family:'Univers for UniS 55 Roman';-inkscape-font-specification:'Univers for UniS 55 Roman, ';fill:#34373e;fill-opacity:1;stroke-width:0.398027">Institute for Parallel and Distributed Systems</tspan><tspan
           sodipodi:role="line"
           x="107.00575"
           y="161.28693"
           style="font-style:normal;font-variant:normal;font-weight:normal;font-stretch:normal;font-family:'Univers for UniS 55 Roman';-inkscape-font-specification:'Univers for UniS 55 Roman, ';fill:#34373e;fill-opacity:1;stroke-width:0.398027"
           id="tspan1324">Analytic Computing</tspan></text></g></g></svg>
